<?xml version="1.0" encoding="UTF-8" standalone="no"?>
<svg
   xmlns:osb="http://www.openswatchbook.org/uri/2009/osb"
   xmlns:dc="http://purl.org/dc/elements/1.1/"
   xmlns:cc="http://creativecommons.org/ns#"
   xmlns:rdf="http://www.w3.org/1999/02/22-rdf-syntax-ns#"
   xmlns:svg="http://www.w3.org/2000/svg"
   xmlns="http://www.w3.org/2000/svg"
   xmlns:xlink="http://www.w3.org/1999/xlink"
   xmlns:sodipodi="http://sodipodi.sourceforge.net/DTD/sodipodi-0.dtd"
   xmlns:inkscape="http://www.inkscape.org/namespaces/inkscape"
   version="1.1"
   id="svg10"
   xml:space="preserve"
   width="1916.313"
   height="471.30701"
   viewBox="0 0 1916.313 471.307"
   sodipodi:docname="OpsFree logo - blue-purple.svg"
   inkscape:export-filename="C:\Users\Neelkush\Downloads\logo-opsfree\blue-purple.png"
   inkscape:export-xdpi="96"
   inkscape:export-ydpi="96"
   inkscape:version="1.0.1 (3bc2e813f5, 2020-09-07)"><metadata
     id="metadata16"><rdf:RDF><cc:Work
         rdf:about=""><dc:format>image/svg+xml</dc:format><dc:type
           rdf:resource="http://purl.org/dc/dcmitype/StillImage" /><dc:title></dc:title></cc:Work></rdf:RDF></metadata><defs
     id="defs14"><linearGradient
       x1="0"
       y1="0"
       x2="1"
       y2="0"
       gradientUnits="userSpaceOnUse"
       gradientTransform="matrix(379.75806,0,0,-379.75806,817.63367,1038.6187)"
       spreadMethod="pad"
       id="linearGradient3069"><stop
         style="stop-opacity:1;stop-color:#0e3e8b"
         offset="0"
         id="stop3065" /><stop
         style="stop-opacity:1;stop-color:#31d2f2"
         offset="1"
         id="stop3067" /></linearGradient><linearGradient
       id="linearGradient2959"
       osb:paint="solid"><stop
         style="stop-color:#6d5ae3;stop-opacity:1;"
         offset="0"
         id="stop2957" /></linearGradient><clipPath
       clipPathUnits="userSpaceOnUse"
       id="clipPath26"><path
         d="M 0,2000 H 2000 V 0 H 0 Z"
         id="path24" /></clipPath><clipPath
       clipPathUnits="userSpaceOnUse"
       id="clipPath62"><path
         d="m 975.615,991.266 -28.39,-25.768 12.737,-14.034 21.374,19.399 19.399,-21.373 14.035,12.74 -25.769,28.389 c -1.87,2.06 -4.44,3.107 -7.02,3.108 v 0 c -2.272,0 -4.551,-0.813 -6.366,-2.461"
         id="path60" /></clipPath><linearGradient
       x1="0"
       y1="0"
       x2="1"
       y2="0"
       gradientUnits="userSpaceOnUse"
       gradientTransform="matrix(379.75806,0,0,-379.75806,817.63367,971.60864)"
       spreadMethod="pad"
       id="linearGradient72"><stop
         style="stop-opacity:1;stop-color:#0e3e8b"
         offset="0"
         id="stop68" /><stop
         style="stop-opacity:1;stop-color:#31d2f2"
         offset="1"
         id="stop70" /></linearGradient><clipPath
       clipPathUnits="userSpaceOnUse"
       id="clipPath82"><path
         d="m 1018.338,1114.318 25.769,-28.39 c 3.517,-3.874 9.511,-4.165 13.386,-0.648 v 0 l 28.389,25.771 -12.737,14.034 -21.373,-19.4 -19.398,21.372 z"
         id="path80" /></clipPath><linearGradient
       x1="0"
       y1="0"
       x2="1"
       y2="0"
       gradientUnits="userSpaceOnUse"
       gradientTransform="matrix(379.75806,0,0,-379.75806,817.63367,1104.9395)"
       spreadMethod="pad"
       id="linearGradient92"><stop
         style="stop-opacity:1;stop-color:#0e3e8b"
         offset="0"
         id="stop88" /><stop
         style="stop-opacity:1;stop-color:#31d2f2"
         offset="1"
         id="stop90" /></linearGradient><clipPath
       clipPathUnits="userSpaceOnUse"
       id="clipPath102"><path
         d="m 1064.964,1155.666 c -7.895,-6.634 -14.219,-14.639 -18.553,-23.612 v 0 c -4.337,-8.966 -6.664,-18.896 -6.659,-29.208 v 0 h 19.47 c 0,7.405 1.64,14.354 4.72,20.738 v 0 c 4.623,9.56 12.548,17.901 23.44,23.95 v 0 c 10.883,6.038 24.728,9.735 40.909,9.736 v 0 c 21.57,0.018 40.925,-6.634 54.447,-16.836 v 0 c 6.769,-5.092 12.073,-11.033 15.642,-17.385 v 0 c 3.569,-6.367 5.446,-13.102 5.452,-20.203 v 0 c -0.01,-7.101 -1.883,-13.837 -5.452,-20.203 v 0 c -5.338,-9.525 -14.646,-18.141 -26.821,-24.32 v 0 c -12.157,-6.186 -27.092,-9.906 -43.268,-9.901 v 0 l -48.195,-0.084 -4.674,0.03 -170.61,-0.083 c -25.523,-0.018 -48.806,-7.728 -66.148,-20.748 v 0 c -8.661,-6.519 -15.846,-14.402 -20.909,-23.402 v 0 c -5.061,-8.985 -7.958,-19.127 -7.949,-29.745 v 0 c -0.009,-10.617 2.888,-20.758 7.949,-29.744 v 0 c 7.608,-13.502 19.926,-24.479 34.972,-32.135 v 0 c 15.063,-7.651 32.942,-12.009 52.09,-12.014 v 0 c 25.514,-0.004 47.521,7.795 63.326,21.074 v 0 c 7.895,6.633 14.22,14.639 18.553,23.612 v 0 c 4.337,8.966 6.664,18.896 6.659,29.207 v 0 h -19.47 c -0.004,-7.405 -1.64,-14.353 -4.72,-20.737 v 0 c -4.622,-9.56 -12.547,-17.901 -23.44,-23.951 v 0 c -10.882,-6.037 -24.728,-9.735 -40.908,-9.736 v 0 c -21.57,-0.017 -40.925,6.635 -54.447,16.837 v 0 c -6.77,5.091 -12.075,11.033 -15.643,17.384 v 0 c -3.569,6.367 -5.445,13.103 -5.452,20.203 v 0 c 0.007,7.101 1.883,13.838 5.452,20.204 v 0 c 5.338,9.524 14.646,18.14 26.821,24.32 v 0 c 12.158,6.186 27.093,9.906 43.269,9.901 v 0 l 170.503,0.083 4.699,-0.03 48.288,0.084 h -0.016 c 25.527,0.017 48.811,7.727 66.152,20.748 v 0 c 8.663,6.518 15.846,14.402 20.909,23.402 v 0 c 5.061,8.985 7.958,19.127 7.95,29.744 v 0 c 0.01,10.616 -2.889,20.758 -7.95,29.744 v 0 c -7.608,13.502 -19.925,24.48 -34.971,32.136 v 0 c -15.063,7.65 -32.942,12.01 -52.09,12.014 v 0 c -25.515,0 -47.521,-7.796 -63.327,-21.074"
         id="path100" /></clipPath><linearGradient
       x1="0"
       y1="0"
       x2="1"
       y2="0"
       gradientUnits="userSpaceOnUse"
       gradientTransform="matrix(379.75806,0,0,-379.75806,817.63367,1038.6187)"
       spreadMethod="pad"
       id="linearGradient112"><stop
         style="stop-opacity:1;stop-color:#0e3e8b"
         offset="0"
         id="stop108" /><stop
         style="stop-opacity:1;stop-color:#31d2f2"
         offset="1"
         id="stop110" /></linearGradient><linearGradient
       inkscape:collect="always"
       xlink:href="#linearGradient112"
       id="linearGradient2969"
       x1="809.80597"
       y1="1038.6185"
       x2="1223.302"
       y2="1038.6185"
       gradientUnits="userSpaceOnUse" /><linearGradient
       inkscape:collect="always"
       xlink:href="#linearGradient3069"
       id="linearGradient2977"
       x1="809.80597"
       y1="1038.6185"
       x2="1223.302"
       y2="1038.6185"
       gradientUnits="userSpaceOnUse" /></defs><sodipodi:namedview
     pagecolor="#ffffff"
     bordercolor="#666666"
     borderopacity="1"
     objecttolerance="10"
     gridtolerance="10"
     guidetolerance="10"
     inkscape:pageopacity="0"
     inkscape:pageshadow="2"
     inkscape:window-width="1920"
     inkscape:window-height="1017"
     id="namedview12"
     showgrid="false"
     inkscape:zoom="0.31874999"
     inkscape:cx="1067.4694"
     inkscape:cy="366.17933"
     inkscape:window-x="-8"
     inkscape:window-y="-8"
     inkscape:window-maximized="1"
     inkscape:current-layer="g18"
     inkscape:document-rotation="0" /><g
     id="g18"
     inkscape:groupmode="layer"
     inkscape:label="OpsFree logo"
     transform="matrix(1.3333333,0,0,-1.3333333,0,2666.6667)"><g
       id="g908"
       transform="translate(-281.3828,823.26008)"><g
         id="g28"
         transform="matrix(1,0,0,0.98947066,989.5767,1038.3558)"
         style="fill:#5c0080;fill-opacity:1"><path
           d="m 0,15.639044 c -0.835,1.696806 -1.805,3.355087 -2.93,4.953832 -3.953,5.617495 -9.536,10.504786 -16.23,14.533168 -13.402,8.041879 -31.293,12.76194 -50.873,12.775074 l -22.131,0.0823 h -0.027 c -12.043,-8.76e-4 -23.153,2.219506 -32.15,5.879283 -9.018,3.657151 -15.849,8.745817 -19.702,14.252118 -2.586,3.691297 -3.915,7.528809 -3.922,11.58871 0.007,4.05815 1.337,7.895663 3.921,11.586084 2.58,3.673786 6.454,7.156703 11.442,10.156317 9.946,6.00449 24.324,9.97946 40.365,9.97509 h 0.043 0.022 c 12.055,0 22.321,-2.20375 30.339,-5.76109 8.028,-3.56522 13.795,-8.44463 17.141,-13.977197 2.231,-3.699177 3.408,-7.696039 3.412,-11.980955 l 10e-4,-1.225762 h 17.541 v 1.226638 0.01664 c 0.001,6.438756 -1.821,12.645493 -5.205,18.238473 -3.384,5.600853 -8.31,10.580083 -14.432,14.691633 -12.254,8.22925 -29.21,13.00885 -48.777,13.0106 h -0.006 l -0.014,-8.8e-4 v 8.8e-4 c -14.691,-0.003 -28.424,-2.67479 -40.028,-7.3861 -11.588,-4.71568 -21.138,-11.4959 -27.079,-19.922137 -3.949,-5.603487 -6.229,-11.960818 -6.228,-18.625464 v -0.01313 -0.03415 c -0.001,-6.664647 2.278,-13.021102 6.228,-18.625464 3.951,-5.615744 9.535,-10.504786 16.229,-14.533167 l 0.793,1.010378 -0.792,-1.011254 c 13.396,-8.039252 31.281,-12.758438 50.858,-12.774198 v 0 l 22.175,-0.08318 h 0.006 c 12.039,0 23.145,-2.21863 32.141,-5.878408 8.498,-3.447019 15.021,-8.169708 18.974,-13.314409 l 0.417,-0.541962 h 19.32 z"
           style="fill:#0e3e8b;fill-opacity:1;fill-rule:nonzero;stroke:none;stroke-width:0.935705"
           id="path30" /></g><g
         id="g32"
         transform="matrix(1,0,0,0.93587266,1059.207,915.97877)"
         style="fill:#31d2f2;fill-opacity:1"><path
           d="M 0,0 V 115.032 H -17.775 V -6.659 h 0.051 c -0.466,-10.958 -1.838,-20.82 -3.951,-29.458 -3.802,-15.606 -9.996,-27.202 -17.093,-34.575 -3.549,-3.699 -7.305,-6.369 -11.185,-8.131 -3.887,-1.759 -7.909,-2.637 -12.203,-2.643 -0.184,0 -0.372,0.002 -0.563,0.005 l -0.074,0.001 h -0.076 c -5.123,0.009 -9.906,1.205 -14.503,3.622 -3.441,1.817 -6.774,4.344 -9.926,7.651 -4.726,4.958 -9.032,11.69 -12.481,20.204 -1.019,2.513 -1.952,5.2 -2.81,8.017 h -18.301 c 3.677,-14.225 9.321,-26.166 16.669,-35.536 5.336,-6.788 11.609,-12.2 18.63,-15.906 6.967,-3.688 14.668,-5.636 22.572,-5.654 v -0.002 c 0.286,-0.005 0.573,-0.008 0.863,-0.008 9.022,-0.014 17.757,2.585 25.408,7.412 5.75,3.613 10.91,8.438 15.394,14.265 6.734,8.75 11.988,19.745 15.63,32.704 3.148,11.221 5.08,23.937 5.63,38.032 H 0 V -3.02 C 0.021,-2.013 0.06,-1.021 0.066,0 Z"
           style="fill:#31d2f2;fill-opacity:1;fill-rule:nonzero;stroke:none"
           id="path34" /></g><g
         id="g36"
         transform="translate(478.0928,923.4102)"
         style="fill:#2d61b3;fill-opacity:1"><path
           d="m 0,0 c 17.801,8.168 31.84,19.458 42.125,33.861 10.279,14.403 15.42,30.491 15.42,48.263 0,17.773 -5.141,33.861 -15.42,48.264 C 31.84,144.79 17.801,156.075 0,164.249 c -17.807,8.168 -37.742,12.257 -59.803,12.257 -22.067,0 -42.066,-4.089 -59.99,-12.257 -17.931,-8.174 -32.035,-19.459 -42.314,-33.861 -10.284,-14.403 -15.421,-30.491 -15.421,-48.264 0,-17.772 5.137,-33.86 15.421,-48.263 10.279,-14.403 24.383,-25.693 42.314,-33.861 17.924,-8.173 37.923,-12.257 59.99,-12.257 22.061,0 41.996,4.084 59.803,12.257 m -129.761,-12.411 c -20.816,9.499 -37.177,22.522 -49.083,39.07 -11.912,16.548 -17.866,35.035 -17.866,55.465 0,20.426 5.954,38.918 17.866,55.465 11.906,16.547 28.267,29.571 49.083,39.07 20.81,9.5 44.13,14.249 69.958,14.249 25.823,0 49.142,-4.702 69.958,-14.095 20.81,-9.399 37.171,-22.37 49.083,-38.917 C 71.145,121.348 77.104,102.756 77.104,82.124 77.104,61.487 71.145,42.9 59.238,26.354 47.326,9.807 30.965,-3.17 10.155,-12.563 c -20.816,-9.4 -44.135,-14.097 -69.958,-14.097 -25.828,0 -49.148,4.75 -69.958,14.249"
           style="fill:#0e3e8b;fill-opacity:1;fill-rule:nonzero;stroke:none"
           id="path38" /></g><g
         id="g40"
         transform="translate(733.7324,919.4268)"
         style="fill:#5c0080;fill-opacity:1"><path
           d="m 0,0 c 12.035,5.716 21.498,13.684 28.397,23.901 6.894,10.214 10.343,21.858 10.343,34.934 0,13.071 -3.449,24.716 -10.343,34.934 -6.899,10.213 -16.362,18.18 -28.397,23.901 -12.036,5.718 -25.577,8.581 -40.621,8.581 -15.045,0 -28.526,-2.863 -40.432,-8.581 -11.913,-5.721 -21.316,-13.688 -28.209,-23.901 -6.9,-10.218 -10.343,-21.863 -10.343,-34.934 0,-13.076 3.443,-24.72 10.343,-34.934 C -102.369,13.684 -92.966,5.716 -81.053,0 -69.147,-5.722 -55.666,-8.58 -40.621,-8.58 -25.577,-8.58 -12.036,-5.722 0,0 M 10.155,129.621 C 24.947,122.674 36.542,113.074 44.946,100.817 53.344,88.56 57.545,74.563 57.545,58.835 57.545,43.102 53.344,29.059 44.946,16.701 36.542,4.337 24.947,-5.263 10.155,-12.104 -4.644,-18.951 -21.192,-22.37 -39.493,-22.37 c -17.3,0 -32.975,3.318 -47.014,9.959 -14.046,6.637 -24.953,15.882 -32.722,27.732 v -95.914 h -18.807 v 219.407 h 18.055 v -37.691 c 7.769,12.257 18.74,21.804 32.91,28.652 14.163,6.842 30.024,10.265 47.578,10.265 18.301,0 34.849,-3.477 49.648,-10.419"
           style="fill:#0e3e8b;fill-opacity:1;fill-rule:nonzero;stroke:none"
           id="path42" /></g><g
         id="g44"
         transform="translate(1274.3223,1050.1211)"
         style="fill:#31d2f2;fill-opacity:1"><path
           d="M 0,0 C 12.789,6.229 28.332,9.346 46.64,9.346 V -5.669 l -4.515,0.306 c -21.814,0 -38.868,-5.569 -51.151,-16.7 -12.289,-11.138 -18.43,-26.613 -18.43,-46.425 v -83.351 H -46.261 V 8.12 h 18.052 V -26.813 C -22.19,-15.169 -12.788,-6.234 0,0"
           style="fill:#31d2f2;fill-opacity:1;fill-rule:nonzero;stroke:none"
           id="path46" /></g><g
         id="g48"
         transform="translate(1384.7666,1038.4766)"
         style="fill:#31d2f2;fill-opacity:1"><path
           d="m 0,0 c -11.038,-5.009 -19.876,-12.057 -26.517,-21.144 -6.647,-9.093 -10.473,-19.359 -11.472,-30.796 h 150.448 c -0.752,11.437 -4.514,21.65 -11.284,30.642 C 94.404,-12.311 85.502,-5.262 74.47,-0.154 63.435,4.951 51.022,7.507 37.235,7.507 23.442,7.507 11.029,5.002 0,0 M 130.512,-63.892 H -38.365 c 0.499,-12.463 4.385,-23.547 11.66,-33.248 7.269,-9.706 17.112,-17.214 29.525,-22.523 12.412,-5.315 26.387,-7.967 41.937,-7.967 12.789,0 24.637,1.886 35.543,5.668 10.908,3.778 19.994,9.347 27.269,16.702 l 10.909,-10.113 c -8.53,-8.379 -19.248,-14.814 -32.16,-19.306 -12.918,-4.495 -26.892,-6.741 -41.937,-6.741 -19.559,0 -36.988,3.471 -52.279,10.419 -15.299,6.942 -27.269,16.547 -35.921,28.805 -8.651,12.258 -12.975,26.248 -12.975,41.981 0,15.524 4.071,29.466 12.223,41.828 8.146,12.358 19.37,22.011 33.663,28.958 14.292,6.943 30.335,10.419 48.143,10.419 17.802,0 33.786,-3.423 47.955,-10.265 14.164,-6.848 25.323,-16.394 33.475,-28.652 8.146,-12.257 12.223,-26.152 12.223,-41.675 z"
           style="fill:#31d2f2;fill-opacity:1;fill-rule:nonzero;stroke:none"
           id="path50" /></g><g
         id="g52"
         transform="translate(1587.7295,1038.4766)"
         style="fill:#31d2f2;fill-opacity:1"><path
           d="m 0,0 c -11.038,-5.009 -19.876,-12.057 -26.517,-21.144 -6.647,-9.093 -10.473,-19.359 -11.472,-30.796 h 150.448 c -0.752,11.437 -4.514,21.65 -11.284,30.642 C 94.404,-12.311 85.502,-5.262 74.47,-0.154 63.435,4.951 51.022,7.507 37.234,7.507 23.441,7.507 11.029,5.002 0,0 M 130.512,-63.892 H -38.365 c 0.499,-12.463 4.385,-23.547 11.66,-33.248 7.269,-9.706 17.112,-17.214 29.525,-22.523 12.412,-5.315 26.387,-7.967 41.937,-7.967 12.789,0 24.637,1.886 35.543,5.668 10.908,3.778 19.993,9.347 27.269,16.702 l 10.909,-10.113 c -8.53,-8.379 -19.248,-14.814 -32.16,-19.306 -12.918,-4.495 -26.892,-6.741 -41.937,-6.741 -19.559,0 -36.988,3.471 -52.279,10.419 -15.299,6.942 -27.269,16.547 -35.921,28.805 -8.651,12.258 -12.975,26.248 -12.975,41.981 0,15.524 4.071,29.466 12.223,41.828 8.146,12.358 19.37,22.011 33.663,28.958 14.292,6.943 30.335,10.419 48.142,10.419 17.803,0 33.787,-3.423 47.956,-10.265 14.164,-6.848 25.323,-16.394 33.475,-28.652 8.146,-12.257 12.223,-26.152 12.223,-41.675 z"
           style="fill:#31d2f2;fill-opacity:1;fill-rule:nonzero;stroke:none"
           id="path54" /></g><g
         id="g56"><g
           id="g58"
           clip-path="url(#clipPath62)"><g
             id="g64"><g
               id="g66"><path
                 d="m 975.615,991.266 -28.39,-25.768 12.737,-14.034 21.374,19.399 19.399,-21.373 14.035,12.74 -25.769,28.389 c -1.87,2.06 -4.44,3.107 -7.02,3.108 v 0 c -2.272,0 -4.551,-0.813 -6.366,-2.461"
                 style="fill:url(#linearGradient72);stroke:none"
                 id="path74" /></g></g></g></g><g
         id="g76"><g
           id="g78"
           clip-path="url(#clipPath82)"><g
             id="g84"><g
               id="g86"><path
                 d="m 1018.338,1114.318 25.769,-28.39 c 3.517,-3.874 9.511,-4.165 13.386,-0.648 v 0 l 28.389,25.771 -12.737,14.034 -21.373,-19.4 -19.398,21.372 z"
                 style="fill:url(#linearGradient92);stroke:none"
                 id="path94" /></g></g></g></g><g
         id="g96"><g
           id="g98"
           clip-path="url(#clipPath102)"><path
             d="m 1064.964,1155.666 c -7.895,-6.634 -14.219,-14.639 -18.553,-23.612 v 0 c -4.337,-8.966 -6.664,-18.896 -6.659,-29.208 v 0 h 19.47 c 0,7.405 1.64,14.354 4.72,20.738 v 0 c 4.623,9.56 12.548,17.901 23.44,23.95 v 0 c 10.883,6.038 24.728,9.735 40.909,9.736 v 0 c 21.57,0.018 40.925,-6.634 54.447,-16.836 v 0 c 6.769,-5.092 12.073,-11.033 15.642,-17.385 v 0 c 3.569,-6.367 5.446,-13.102 5.452,-20.203 v 0 c -0.01,-7.101 -1.883,-13.837 -5.452,-20.203 v 0 c -5.338,-9.525 -14.646,-18.141 -26.821,-24.32 v 0 c -12.157,-6.186 -27.092,-9.906 -43.268,-9.901 v 0 l -48.195,-0.084 -4.674,0.03 -170.61,-0.083 c -25.523,-0.018 -48.806,-7.728 -66.148,-20.748 v 0 c -8.661,-6.519 -15.846,-14.402 -20.909,-23.402 v 0 c -5.061,-8.985 -7.958,-19.127 -7.949,-29.745 v 0 c -0.009,-10.617 2.888,-20.758 7.949,-29.744 v 0 c 7.608,-13.502 19.926,-24.479 34.972,-32.135 v 0 c 15.063,-7.651 32.942,-12.009 52.09,-12.014 v 0 c 25.514,-0.004 47.521,7.795 63.326,21.074 v 0 c 7.895,6.633 14.22,14.639 18.553,23.612 v 0 c 4.337,8.966 6.664,18.896 6.659,29.207 v 0 h -19.47 c -0.004,-7.405 -1.64,-14.353 -4.72,-20.737 v 0 c -4.622,-9.56 -12.547,-17.901 -23.44,-23.951 v 0 c -10.882,-6.037 -24.728,-9.735 -40.908,-9.736 v 0 c -21.57,-0.017 -40.925,6.635 -54.447,16.837 v 0 c -6.77,5.091 -12.075,11.033 -15.643,17.384 v 0 c -3.569,6.367 -5.445,13.103 -5.452,20.203 v 0 c 0.007,7.101 1.883,13.838 5.452,20.204 v 0 c 5.338,9.524 14.646,18.14 26.821,24.32 v 0 c 12.158,6.186 27.093,9.906 43.269,9.901 v 0 l 170.503,0.083 4.699,-0.03 48.288,0.084 h -0.016 c 25.527,0.017 48.811,7.727 66.152,20.748 v 0 c 8.663,6.518 15.846,14.402 20.909,23.402 v 0 c 5.061,8.985 7.958,19.127 7.95,29.744 v 0 c 0.01,10.616 -2.889,20.758 -7.95,29.744 v 0 c -7.608,13.502 -19.925,24.48 -34.971,32.136 v 0 c -15.063,7.65 -32.942,12.01 -52.09,12.014 v 0 c -25.515,0 -47.521,-7.796 -63.327,-21.074"
             style="mix-blend-mode:normal;fill:url(#linearGradient2969);fill-opacity:1;fill-rule:evenodd;stroke:url(#linearGradient2977);stroke-width:0.99975;stroke-miterlimit:4;stroke-dasharray:none"
             id="path114" /></g></g></g></g></svg>
