<?xml version="1.0" encoding="UTF-8" standalone="no"?>
<svg
   xmlns:osb="http://www.openswatchbook.org/uri/2009/osb"
   xmlns:dc="http://purl.org/dc/elements/1.1/"
   xmlns:cc="http://creativecommons.org/ns#"
   xmlns:rdf="http://www.w3.org/1999/02/22-rdf-syntax-ns#"
   xmlns:svg="http://www.w3.org/2000/svg"
   xmlns="http://www.w3.org/2000/svg"
   xmlns:xlink="http://www.w3.org/1999/xlink"
   xmlns:sodipodi="http://sodipodi.sourceforge.net/DTD/sodipodi-0.dtd"
   xmlns:inkscape="http://www.inkscape.org/namespaces/inkscape"
   version="1.1"
   id="svg10"
   xml:space="preserve"
   width="551.328"
   height="368.32401"
   viewBox="0 0 551.32801 368.324"
   sodipodi:docname="OpsFree logo - blue-purple.svg"
   inkscape:export-filename="C:\Users\Neelkush\Downloads\logo-opsfree\blue-purple.png"
   inkscape:export-xdpi="96"
   inkscape:export-ydpi="96"
   inkscape:version="1.0.1 (3bc2e813f5, 2020-09-07)"><metadata
     id="metadata16"><rdf:RDF><cc:Work
         rdf:about=""><dc:format>image/svg+xml</dc:format><dc:type
           rdf:resource="http://purl.org/dc/dcmitype/StillImage" /><dc:title></dc:title></cc:Work></rdf:RDF></metadata><defs
     id="defs14"><linearGradient
       x1="0"
       y1="0"
       x2="1"
       y2="0"
       gradientUnits="userSpaceOnUse"
       gradientTransform="matrix(379.75806,0,0,-379.75806,817.63367,1038.6187)"
       spreadMethod="pad"
       id="linearGradient3069"><stop
         style="stop-opacity:1;stop-color:#0e3e8b"
         offset="0"
         id="stop3065" /><stop
         style="stop-opacity:1;stop-color:#31d2f2"
         offset="1"
         id="stop3067" /></linearGradient><linearGradient
       id="linearGradient2959"
       osb:paint="solid"><stop
         style="stop-color:#6d5ae3;stop-opacity:1;"
         offset="0"
         id="stop2957" /></linearGradient><clipPath
       clipPathUnits="userSpaceOnUse"
       id="clipPath26"><path
         d="M 0,2000 H 2000 V 0 H 0 Z"
         id="path24" /></clipPath><clipPath
       clipPathUnits="userSpaceOnUse"
       id="clipPath62"><path
         d="m 975.615,991.266 -28.39,-25.768 12.737,-14.034 21.374,19.399 19.399,-21.373 14.035,12.74 -25.769,28.389 c -1.87,2.06 -4.44,3.107 -7.02,3.108 v 0 c -2.272,0 -4.551,-0.813 -6.366,-2.461"
         id="path60" /></clipPath><linearGradient
       x1="0"
       y1="0"
       x2="1"
       y2="0"
       gradientUnits="userSpaceOnUse"
       gradientTransform="matrix(379.75806,0,0,-379.75806,817.63367,971.60864)"
       spreadMethod="pad"
       id="linearGradient72"><stop
         style="stop-opacity:1;stop-color:#0e3e8b"
         offset="0"
         id="stop68" /><stop
         style="stop-opacity:1;stop-color:#31d2f2"
         offset="1"
         id="stop70" /></linearGradient><clipPath
       clipPathUnits="userSpaceOnUse"
       id="clipPath82"><path
         d="m 1018.338,1114.318 25.769,-28.39 c 3.517,-3.874 9.511,-4.165 13.386,-0.648 v 0 l 28.389,25.771 -12.737,14.034 -21.373,-19.4 -19.398,21.372 z"
         id="path80" /></clipPath><linearGradient
       x1="0"
       y1="0"
       x2="1"
       y2="0"
       gradientUnits="userSpaceOnUse"
       gradientTransform="matrix(379.75806,0,0,-379.75806,817.63367,1104.9395)"
       spreadMethod="pad"
       id="linearGradient92"><stop
         style="stop-opacity:1;stop-color:#0e3e8b"
         offset="0"
         id="stop88" /><stop
         style="stop-opacity:1;stop-color:#31d2f2"
         offset="1"
         id="stop90" /></linearGradient><clipPath
       clipPathUnits="userSpaceOnUse"
       id="clipPath102"><path
         d="m 1064.964,1155.666 c -7.895,-6.634 -14.219,-14.639 -18.553,-23.612 v 0 c -4.337,-8.966 -6.664,-18.896 -6.659,-29.208 v 0 h 19.47 c 0,7.405 1.64,14.354 4.72,20.738 v 0 c 4.623,9.56 12.548,17.901 23.44,23.95 v 0 c 10.883,6.038 24.728,9.735 40.909,9.736 v 0 c 21.57,0.018 40.925,-6.634 54.447,-16.836 v 0 c 6.769,-5.092 12.073,-11.033 15.642,-17.385 v 0 c 3.569,-6.367 5.446,-13.102 5.452,-20.203 v 0 c -0.01,-7.101 -1.883,-13.837 -5.452,-20.203 v 0 c -5.338,-9.525 -14.646,-18.141 -26.821,-24.32 v 0 c -12.157,-6.186 -27.092,-9.906 -43.268,-9.901 v 0 l -48.195,-0.084 -4.674,0.03 -170.61,-0.083 c -25.523,-0.018 -48.806,-7.728 -66.148,-20.748 v 0 c -8.661,-6.519 -15.846,-14.402 -20.909,-23.402 v 0 c -5.061,-8.985 -7.958,-19.127 -7.949,-29.745 v 0 c -0.009,-10.617 2.888,-20.758 7.949,-29.744 v 0 c 7.608,-13.502 19.926,-24.479 34.972,-32.135 v 0 c 15.063,-7.651 32.942,-12.009 52.09,-12.014 v 0 c 25.514,-0.004 47.521,7.795 63.326,21.074 v 0 c 7.895,6.633 14.22,14.639 18.553,23.612 v 0 c 4.337,8.966 6.664,18.896 6.659,29.207 v 0 h -19.47 c -0.004,-7.405 -1.64,-14.353 -4.72,-20.737 v 0 c -4.622,-9.56 -12.547,-17.901 -23.44,-23.951 v 0 c -10.882,-6.037 -24.728,-9.735 -40.908,-9.736 v 0 c -21.57,-0.017 -40.925,6.635 -54.447,16.837 v 0 c -6.77,5.091 -12.075,11.033 -15.643,17.384 v 0 c -3.569,6.367 -5.445,13.103 -5.452,20.203 v 0 c 0.007,7.101 1.883,13.838 5.452,20.204 v 0 c 5.338,9.524 14.646,18.14 26.821,24.32 v 0 c 12.158,6.186 27.093,9.906 43.269,9.901 v 0 l 170.503,0.083 4.699,-0.03 48.288,0.084 h -0.016 c 25.527,0.017 48.811,7.727 66.152,20.748 v 0 c 8.663,6.518 15.846,14.402 20.909,23.402 v 0 c 5.061,8.985 7.958,19.127 7.95,29.744 v 0 c 0.01,10.616 -2.889,20.758 -7.95,29.744 v 0 c -7.608,13.502 -19.925,24.48 -34.971,32.136 v 0 c -15.063,7.65 -32.942,12.01 -52.09,12.014 v 0 c -25.515,0 -47.521,-7.796 -63.327,-21.074"
         id="path100" /></clipPath><linearGradient
       x1="0"
       y1="0"
       x2="1"
       y2="0"
       gradientUnits="userSpaceOnUse"
       gradientTransform="matrix(379.75806,0,0,-379.75806,817.63367,1038.6187)"
       spreadMethod="pad"
       id="linearGradient112"><stop
         style="stop-opacity:1;stop-color:#0e3e8b"
         offset="0"
         id="stop108" /><stop
         style="stop-opacity:1;stop-color:#31d2f2"
         offset="1"
         id="stop110" /></linearGradient><linearGradient
       inkscape:collect="always"
       xlink:href="#linearGradient112"
       id="linearGradient2969"
       x1="809.80597"
       y1="1038.6185"
       x2="1223.302"
       y2="1038.6185"
       gradientUnits="userSpaceOnUse" /><linearGradient
       inkscape:collect="always"
       xlink:href="#linearGradient3069"
       id="linearGradient2977"
       x1="809.80597"
       y1="1038.6185"
       x2="1223.302"
       y2="1038.6185"
       gradientUnits="userSpaceOnUse" /></defs><sodipodi:namedview
     pagecolor="#ffffff"
     bordercolor="#666666"
     borderopacity="1"
     objecttolerance="10"
     gridtolerance="10"
     guidetolerance="10"
     inkscape:pageopacity="0"
     inkscape:pageshadow="2"
     inkscape:window-width="1920"
     inkscape:window-height="1017"
     id="namedview12"
     showgrid="false"
     inkscape:zoom="0.31874999"
     inkscape:cx="1067.4694"
     inkscape:cy="366.17933"
     inkscape:window-x="-8"
     inkscape:window-y="-8"
     inkscape:window-maximized="1"
     inkscape:current-layer="g18"
     inkscape:document-rotation="0" /><g
     id="g18"
     inkscape:groupmode="layer"
     inkscape:label="OpsFree logo"
     transform="matrix(1.3333333,0,0,-1.3333333,0,2666.6667)"><g
       id="g950"
       transform="translate(-528.42318)"><g
         id="g56"
         transform="translate(-281.3828,823.26008)"><g
           id="g58"
           clip-path="url(#clipPath62)"><g
             id="g64"><g
               id="g66"><path
                 d="m 975.615,991.266 -28.39,-25.768 12.737,-14.034 21.374,19.399 19.399,-21.373 14.035,12.74 -25.769,28.389 c -1.87,2.06 -4.44,3.107 -7.02,3.108 v 0 c -2.272,0 -4.551,-0.813 -6.366,-2.461"
                 style="fill:url(#linearGradient72);stroke:none"
                 id="path74" /></g></g></g></g><g
         id="g76"
         transform="translate(-281.3828,823.26008)"><g
           id="g78"
           clip-path="url(#clipPath82)"><g
             id="g84"><g
               id="g86"><path
                 d="m 1018.338,1114.318 25.769,-28.39 c 3.517,-3.874 9.511,-4.165 13.386,-0.648 v 0 l 28.389,25.771 -12.737,14.034 -21.373,-19.4 -19.398,21.372 z"
                 style="fill:url(#linearGradient92);stroke:none"
                 id="path94" /></g></g></g></g><g
         id="g96"
         transform="translate(-281.3828,823.26008)"><g
           id="g98"
           clip-path="url(#clipPath102)"><path
             d="m 1064.964,1155.666 c -7.895,-6.634 -14.219,-14.639 -18.553,-23.612 v 0 c -4.337,-8.966 -6.664,-18.896 -6.659,-29.208 v 0 h 19.47 c 0,7.405 1.64,14.354 4.72,20.738 v 0 c 4.623,9.56 12.548,17.901 23.44,23.95 v 0 c 10.883,6.038 24.728,9.735 40.909,9.736 v 0 c 21.57,0.018 40.925,-6.634 54.447,-16.836 v 0 c 6.769,-5.092 12.073,-11.033 15.642,-17.385 v 0 c 3.569,-6.367 5.446,-13.102 5.452,-20.203 v 0 c -0.01,-7.101 -1.883,-13.837 -5.452,-20.203 v 0 c -5.338,-9.525 -14.646,-18.141 -26.821,-24.32 v 0 c -12.157,-6.186 -27.092,-9.906 -43.268,-9.901 v 0 l -48.195,-0.084 -4.674,0.03 -170.61,-0.083 c -25.523,-0.018 -48.806,-7.728 -66.148,-20.748 v 0 c -8.661,-6.519 -15.846,-14.402 -20.909,-23.402 v 0 c -5.061,-8.985 -7.958,-19.127 -7.949,-29.745 v 0 c -0.009,-10.617 2.888,-20.758 7.949,-29.744 v 0 c 7.608,-13.502 19.926,-24.479 34.972,-32.135 v 0 c 15.063,-7.651 32.942,-12.009 52.09,-12.014 v 0 c 25.514,-0.004 47.521,7.795 63.326,21.074 v 0 c 7.895,6.633 14.22,14.639 18.553,23.612 v 0 c 4.337,8.966 6.664,18.896 6.659,29.207 v 0 h -19.47 c -0.004,-7.405 -1.64,-14.353 -4.72,-20.737 v 0 c -4.622,-9.56 -12.547,-17.901 -23.44,-23.951 v 0 c -10.882,-6.037 -24.728,-9.735 -40.908,-9.736 v 0 c -21.57,-0.017 -40.925,6.635 -54.447,16.837 v 0 c -6.77,5.091 -12.075,11.033 -15.643,17.384 v 0 c -3.569,6.367 -5.445,13.103 -5.452,20.203 v 0 c 0.007,7.101 1.883,13.838 5.452,20.204 v 0 c 5.338,9.524 14.646,18.14 26.821,24.32 v 0 c 12.158,6.186 27.093,9.906 43.269,9.901 v 0 l 170.503,0.083 4.699,-0.03 48.288,0.084 h -0.016 c 25.527,0.017 48.811,7.727 66.152,20.748 v 0 c 8.663,6.518 15.846,14.402 20.909,23.402 v 0 c 5.061,8.985 7.958,19.127 7.95,29.744 v 0 c 0.01,10.616 -2.889,20.758 -7.95,29.744 v 0 c -7.608,13.502 -19.925,24.48 -34.971,32.136 v 0 c -15.063,7.65 -32.942,12.01 -52.09,12.014 v 0 c -25.515,0 -47.521,-7.796 -63.327,-21.074"
             style="mix-blend-mode:normal;fill:url(#linearGradient2969);fill-opacity:1;fill-rule:evenodd;stroke:url(#linearGradient2977);stroke-width:0.99975;stroke-miterlimit:4;stroke-dasharray:none"
             id="path114" /></g></g></g></g></svg>
