<?xml version="1.0" encoding="UTF-8" standalone="no"?>
<svg
   xmlns:dc="http://purl.org/dc/elements/1.1/"
   xmlns:cc="http://creativecommons.org/ns#"
   xmlns:rdf="http://www.w3.org/1999/02/22-rdf-syntax-ns#"
   xmlns:svg="http://www.w3.org/2000/svg"
   xmlns="http://www.w3.org/2000/svg"
   xmlns:xlink="http://www.w3.org/1999/xlink"
   xmlns:sodipodi="http://sodipodi.sourceforge.net/DTD/sodipodi-0.dtd"
   xmlns:inkscape="http://www.inkscape.org/namespaces/inkscape"
   version="1.1"
   id="svg2070"
   xml:space="preserve"
   width="1198.364"
   height="294.978"
   viewBox="0 0 1198.364 294.97799"
   sodipodi:docname="OpsFree logo2.svg"
   inkscape:version="1.0.1 (3bc2e813f5, 2020-09-07)"><metadata
     id="metadata2076"><rdf:RDF><cc:Work
         rdf:about=""><dc:format>image/svg+xml</dc:format><dc:type
           rdf:resource="http://purl.org/dc/dcmitype/StillImage" /><dc:title></dc:title></cc:Work></rdf:RDF></metadata><defs
     id="defs2074"><linearGradient
       inkscape:collect="always"
       id="linearGradient1022"><stop
         style="stop-color:#42daff;stop-opacity:1"
         offset="0"
         id="stop1018" /><stop
         style="stop-color:#f2f2f2;stop-opacity:1"
         offset="1"
         id="stop1020" /></linearGradient><linearGradient
       inkscape:collect="always"
       id="linearGradient2842"><stop
         style="stop-color:#aaeeff;stop-opacity:1"
         offset="0"
         id="stop2838" /><stop
         style="stop-color:#f2f2f2;stop-opacity:1"
         offset="1"
         id="stop2840" /></linearGradient><linearGradient
       inkscape:collect="always"
       id="linearGradient2832"><stop
         style="stop-color:#aaeeff;stop-opacity:1"
         offset="0"
         id="stop2828" /><stop
         style="stop-color:#f2f2f2;stop-opacity:1"
         offset="1"
         id="stop2830" /></linearGradient><linearGradient
       inkscape:collect="always"
       id="linearGradient2225"><stop
         style="stop-color:#42daff;stop-opacity:1"
         offset="0"
         id="stop2221" /><stop
         style="stop-color:#f2f2f2;stop-opacity:1"
         offset="1"
         id="stop2223" /></linearGradient><clipPath
       clipPathUnits="userSpaceOnUse"
       id="clipPath2086"><path
         d="M 0,2000 H 2000 V 0 H 0 Z"
         id="path2084" /></clipPath><clipPath
       clipPathUnits="userSpaceOnUse"
       id="clipPath2122"><path
         d="m 975.615,991.266 -28.39,-25.768 12.737,-14.034 21.374,19.399 19.399,-21.373 14.035,12.74 -25.769,28.389 c -1.87,2.06 -4.44,3.107 -7.02,3.108 v 0 c -2.272,0 -4.551,-0.813 -6.366,-2.461"
         id="path2120" /></clipPath><linearGradient
       x1="0"
       y1="0"
       x2="1"
       y2="0"
       gradientUnits="userSpaceOnUse"
       gradientTransform="matrix(379.75806,0,0,-379.75806,817.63367,971.60864)"
       spreadMethod="pad"
       id="linearGradient2132"><stop
         style="stop-opacity:1;stop-color:#aaeeff"
         offset="0"
         id="stop2128" /><stop
         style="stop-opacity:1;stop-color:#f2f2f2"
         offset="1"
         id="stop2130" /></linearGradient><clipPath
       clipPathUnits="userSpaceOnUse"
       id="clipPath2142"><path
         d="m 1018.338,1114.318 25.769,-28.39 c 3.517,-3.874 9.511,-4.165 13.386,-0.648 v 0 l 28.389,25.771 -12.737,14.034 -21.373,-19.4 -19.398,21.372 z"
         id="path2140" /></clipPath><linearGradient
       x1="0.43274271"
       y1="0.0073099537"
       x2="0.78088951"
       y2="0.051619545"
       gradientUnits="userSpaceOnUse"
       gradientTransform="matrix(379.75806,0,0,-379.75806,817.63367,1104.9395)"
       spreadMethod="pad"
       id="linearGradient2152"><stop
         style="stop-opacity:1;stop-color:#42daff"
         offset="0"
         id="stop2148" /><stop
         style="stop-opacity:1;stop-color:#f2f2f2"
         offset="1"
         id="stop2150" /></linearGradient><clipPath
       clipPathUnits="userSpaceOnUse"
       id="clipPath2162"><path
         d="m 1064.964,1155.666 c -7.895,-6.634 -14.219,-14.639 -18.553,-23.612 v 0 c -4.337,-8.966 -6.664,-18.896 -6.659,-29.208 v 0 h 19.47 c 0,7.405 1.64,14.354 4.72,20.738 v 0 c 4.623,9.56 12.548,17.901 23.44,23.95 v 0 c 10.883,6.038 24.728,9.735 40.909,9.736 v 0 c 21.57,0.018 40.925,-6.634 54.447,-16.836 v 0 c 6.769,-5.092 12.073,-11.033 15.642,-17.385 v 0 c 3.569,-6.367 5.446,-13.102 5.452,-20.203 v 0 c -0.01,-7.101 -1.883,-13.837 -5.452,-20.203 v 0 c -5.338,-9.525 -14.646,-18.141 -26.821,-24.32 v 0 c -12.157,-6.186 -27.092,-9.906 -43.268,-9.901 v 0 l -48.195,-0.084 -4.674,0.03 -170.61,-0.083 c -25.523,-0.018 -48.806,-7.728 -66.148,-20.748 v 0 c -8.661,-6.519 -15.846,-14.402 -20.909,-23.402 v 0 c -5.061,-8.985 -7.958,-19.127 -7.949,-29.745 v 0 c -0.009,-10.617 2.888,-20.758 7.949,-29.744 v 0 c 7.608,-13.502 19.926,-24.479 34.972,-32.135 v 0 c 15.063,-7.651 32.942,-12.009 52.09,-12.014 v 0 c 25.514,-0.004 47.521,7.795 63.326,21.074 v 0 c 7.895,6.633 14.22,14.639 18.553,23.612 v 0 c 4.337,8.966 6.664,18.896 6.659,29.207 v 0 h -19.47 c -0.004,-7.405 -1.64,-14.353 -4.72,-20.737 v 0 c -4.622,-9.56 -12.547,-17.901 -23.44,-23.951 v 0 c -10.882,-6.037 -24.728,-9.735 -40.908,-9.736 v 0 c -21.57,-0.017 -40.925,6.635 -54.447,16.837 v 0 c -6.77,5.091 -12.075,11.033 -15.643,17.384 v 0 c -3.569,6.367 -5.445,13.103 -5.452,20.203 v 0 c 0.007,7.101 1.883,13.838 5.452,20.204 v 0 c 5.338,9.524 14.646,18.14 26.821,24.32 v 0 c 12.158,6.186 27.093,9.906 43.269,9.901 v 0 l 170.503,0.083 4.699,-0.03 48.288,0.084 h -0.016 c 25.527,0.017 48.811,7.727 66.152,20.748 v 0 c 8.663,6.518 15.846,14.402 20.909,23.402 v 0 c 5.061,8.985 7.958,19.127 7.95,29.744 v 0 c 0.01,10.616 -2.889,20.758 -7.95,29.744 v 0 c -7.608,13.502 -19.925,24.48 -34.971,32.136 v 0 c -15.063,7.65 -32.942,12.01 -52.09,12.014 v 0 c -25.515,0 -47.521,-7.796 -63.327,-21.074"
         id="path2160" /></clipPath><linearGradient
       x1="0.44856757"
       y1="-0.24645393"
       x2="0.81804013"
       y2="-0.025814593"
       gradientUnits="userSpaceOnUse"
       gradientTransform="matrix(379.75806,0,0,-379.75806,817.63367,1038.6187)"
       spreadMethod="pad"
       id="linearGradient2172"><stop
         style="stop-opacity:1;stop-color:#2a7fff"
         offset="0"
         id="stop2168" /><stop
         style="stop-opacity:1;stop-color:#f2f2f2"
         offset="1"
         id="stop2170" /></linearGradient><linearGradient
       inkscape:collect="always"
       xlink:href="#linearGradient2225"
       id="linearGradient2227"
       x1="805.98438"
       y1="960.18274"
       x2="1230.5527"
       y2="1115.9819"
       gradientUnits="userSpaceOnUse" /><linearGradient
       inkscape:collect="always"
       xlink:href="#linearGradient2832"
       id="linearGradient2834"
       x1="826.9231"
       y1="908.65387"
       x2="919.47119"
       y2="998.7981"
       gradientUnits="userSpaceOnUse" /><linearGradient
       inkscape:collect="always"
       xlink:href="#linearGradient2842"
       id="linearGradient2836"
       gradientUnits="userSpaceOnUse"
       x1="1004.8077"
       y1="1102.1635"
       x2="1018.338"
       y2="1114.318" /><linearGradient
       inkscape:collect="always"
       xlink:href="#linearGradient2832"
       id="linearGradient922"
       gradientUnits="userSpaceOnUse"
       x1="826.9231"
       y1="908.65387"
       x2="919.47119"
       y2="998.7981" /><linearGradient
       inkscape:collect="always"
       xlink:href="#linearGradient2832"
       id="linearGradient924"
       gradientUnits="userSpaceOnUse"
       x1="826.9231"
       y1="908.65387"
       x2="919.47119"
       y2="998.7981" /><linearGradient
       inkscape:collect="always"
       xlink:href="#linearGradient2832"
       id="linearGradient926"
       gradientUnits="userSpaceOnUse"
       x1="826.9231"
       y1="908.65387"
       x2="919.47119"
       y2="998.7981" /><linearGradient
       inkscape:collect="always"
       xlink:href="#linearGradient1022"
       id="linearGradient1024"
       x1="947.22498"
       y1="971.60852"
       x2="1014.77"
       y2="971.60852"
       gradientUnits="userSpaceOnUse" /></defs><sodipodi:namedview
     pagecolor="#ffffff"
     bordercolor="#666666"
     borderopacity="1"
     objecttolerance="10"
     gridtolerance="10"
     guidetolerance="10"
     inkscape:pageopacity="0"
     inkscape:pageshadow="2"
     inkscape:window-width="1920"
     inkscape:window-height="1017"
     id="namedview2072"
     showgrid="false"
     inkscape:zoom="0.31199999"
     inkscape:cx="590.15851"
     inkscape:cy="275.1745"
     inkscape:window-x="-8"
     inkscape:window-y="-8"
     inkscape:window-maximized="1"
     inkscape:current-layer="g2078"
     inkscape:document-rotation="0" /><g
     id="g2078"
     inkscape:groupmode="layer"
     inkscape:label="OpsFree logo"
     transform="matrix(1.3333333,0,0,-1.3333333,0,2666.6667)"><g
       id="g1065"
       transform="translate(-483.30589,892.97158)"><g
         id="g2088"
         transform="matrix(0.6258723,0,0,0.52933418,925.79259,1033.5982)"
         style="fill:#42daff;fill-opacity:1"><path
           d="m 0,0 c -0.835,1.938 -1.805,3.832 -2.93,5.658 -3.953,6.416 -9.536,11.998 -16.23,16.599 -13.402,9.185 -31.293,14.576 -50.873,14.591 l -22.131,0.094 h -0.027 c -12.043,-10e-4 -23.153,2.535 -32.15,6.715 -9.018,4.177 -15.849,9.989 -19.702,16.278 -2.586,4.216 -3.915,8.599 -3.922,13.236 0.007,4.635 1.337,9.018 3.921,13.233 2.58,4.196 6.454,8.174 11.442,11.6 9.946,6.858 24.324,11.398 40.365,11.393 h 0.043 0.022 c 12.055,0 22.321,-2.517 30.339,-6.58 8.028,-4.072 13.795,-9.645 17.141,-15.964 2.231,-4.225 3.408,-8.79 3.412,-13.684 l 10e-4,-1.4 h 17.541 v 1.401 0.019 c 0.001,7.354 -1.821,14.443 -5.205,20.831 -3.384,6.397 -8.31,12.084 -14.432,16.78 -12.254,9.399 -29.21,14.858 -48.777,14.86 h -0.006 l -0.014,-10e-4 v 10e-4 c -14.691,-0.003 -28.424,-3.055 -40.028,-8.436 -11.588,-5.386 -21.138,-13.13 -27.079,-22.754 -3.949,-6.4 -6.229,-13.661 -6.228,-21.273 v -0.015 -0.039 c -0.001,-7.612 2.278,-14.872 6.228,-21.273 3.951,-6.414 9.535,-11.998 16.229,-16.599 l 0.793,1.154 -0.792,-1.155 c 13.396,-9.182 31.281,-14.572 50.858,-14.59 v 0 l 22.175,-0.095 h 0.006 c 12.039,0 23.145,-2.534 32.141,-6.714 8.498,-3.937 15.021,-9.331 18.974,-15.207 l 0.417,-0.619 h 19.32 z"
           style="fill:#42daff;fill-opacity:1;fill-rule:nonzero;stroke:none"
           id="path2090" /></g><g
         id="g2092"
         transform="matrix(0.6258723,0,0,0.57235815,969.37226,942.49981)"
         style="fill:#ececec"><path
           d="M 0,0 V 115.032 H -17.775 V -6.659 h 0.051 c -0.466,-10.958 -1.838,-20.82 -3.951,-29.458 -3.802,-15.606 -9.996,-27.202 -17.093,-34.575 -3.549,-3.699 -7.305,-6.369 -11.185,-8.131 -3.887,-1.759 -7.909,-2.637 -12.203,-2.643 -0.184,0 -0.372,0.002 -0.563,0.005 l -0.074,0.001 h -0.076 c -5.123,0.009 -9.906,1.205 -14.503,3.622 -3.441,1.817 -6.774,4.344 -9.926,7.651 -4.726,4.958 -9.032,11.69 -12.481,20.204 -1.019,2.513 -1.952,5.2 -2.81,8.017 h -18.301 c 3.677,-14.225 9.321,-26.166 16.669,-35.536 5.336,-6.788 11.609,-12.2 18.63,-15.906 6.967,-3.688 14.668,-5.636 22.572,-5.654 v -0.002 c 0.286,-0.005 0.573,-0.008 0.863,-0.008 9.022,-0.014 17.757,2.585 25.408,7.412 5.75,3.613 10.91,8.438 15.394,14.265 6.734,8.75 11.988,19.745 15.63,32.704 3.148,11.221 5.08,23.937 5.63,38.032 H 0 V -3.02 C 0.021,-2.013 0.06,-1.021 0.066,0 Z"
           style="fill:#f2f2f2;fill-opacity:1;fill-rule:nonzero;stroke:none"
           id="path2094" /></g><g
         id="g2096"
         transform="matrix(0.6258723,0,0,0.6258723,606.42123,926.66112)"
         style="fill:#42daff;fill-opacity:1"><path
           d="m 0,0 c 17.801,8.168 31.84,19.458 42.125,33.861 10.279,14.403 15.42,30.491 15.42,48.263 0,17.773 -5.141,33.861 -15.42,48.264 C 31.84,144.79 17.801,156.075 0,164.249 c -17.807,8.168 -37.742,12.257 -59.803,12.257 -22.067,0 -42.066,-4.089 -59.99,-12.257 -17.931,-8.174 -32.035,-19.459 -42.314,-33.861 -10.284,-14.403 -15.421,-30.491 -15.421,-48.264 0,-17.772 5.137,-33.86 15.421,-48.263 10.279,-14.403 24.383,-25.693 42.314,-33.861 17.924,-8.173 37.923,-12.257 59.99,-12.257 22.061,0 41.996,4.084 59.803,12.257 m -129.761,-12.411 c -20.816,9.499 -37.177,22.522 -49.083,39.07 -11.912,16.548 -17.866,35.035 -17.866,55.465 0,20.426 5.954,38.918 17.866,55.465 11.906,16.547 28.267,29.571 49.083,39.07 20.81,9.5 44.13,14.249 69.958,14.249 25.823,0 49.142,-4.702 69.958,-14.095 20.81,-9.399 37.171,-22.37 49.083,-38.917 C 71.145,121.348 77.104,102.756 77.104,82.124 77.104,61.487 71.145,42.9 59.238,26.354 47.326,9.807 30.965,-3.17 10.155,-12.563 c -20.816,-9.4 -44.135,-14.097 -69.958,-14.097 -25.828,0 -49.148,4.75 -69.958,14.249"
           style="fill:#42daff;fill-opacity:1;fill-rule:nonzero;stroke:none"
           id="path2098" /></g><g
         id="g2100"
         transform="matrix(0.6258723,0,0,0.6258723,765.66672,945.98329)"
         style="fill:#42daff;fill-opacity:1"><path
           d="m 0,0 c 12.035,5.716 21.498,13.684 28.397,23.901 6.894,10.214 10.343,21.858 10.343,34.934 0,13.071 -3.449,24.716 -10.343,34.934 -6.899,10.213 -16.362,18.18 -28.397,23.901 -12.036,5.718 -25.577,8.581 -40.621,8.581 -15.045,0 -28.526,-2.863 -40.432,-8.581 -11.913,-5.721 -21.316,-13.688 -28.209,-23.901 -6.9,-10.218 -10.343,-21.863 -10.343,-34.934 0,-13.076 3.443,-24.72 10.343,-34.934 C -102.369,13.684 -92.966,5.716 -81.053,0 -69.147,-5.722 -55.666,-8.58 -40.621,-8.58 -25.577,-8.58 -12.036,-5.722 0,0 M 10.155,129.621 C 24.947,122.674 36.542,113.074 44.946,100.817 53.344,88.56 57.545,74.563 57.545,58.835 57.545,43.102 53.344,29.059 44.946,16.701 36.542,4.337 24.947,-5.263 10.155,-12.104 -4.644,-18.951 -21.192,-22.37 -39.493,-22.37 c -17.3,0 -32.975,3.318 -47.014,9.959 -14.046,6.637 -24.953,15.882 -32.722,27.732 v -95.914 h -18.807 v 219.407 h 18.055 v -37.691 c 7.769,12.257 18.74,21.804 32.91,28.652 14.163,6.842 30.024,10.265 47.578,10.265 18.301,0 34.849,-3.477 49.648,-10.419"
           style="fill:#42daff;fill-opacity:1;fill-rule:nonzero;stroke:none"
           id="path2102" /></g><g
         id="g2104"
         transform="matrix(0.6258723,0,0,0.6258723,1104.007,1027.7812)"
         style="fill:#ff7f2a"><path
           d="M 0,0 C 12.789,6.229 28.332,9.346 46.64,9.346 V -5.669 l -4.515,0.306 c -21.814,0 -38.868,-5.569 -51.151,-16.7 -12.289,-11.138 -18.43,-26.613 -18.43,-46.425 v -83.351 H -46.261 V 8.12 h 18.052 V -26.813 C -22.19,-15.169 -12.788,-6.234 0,0"
           style="fill:#f2f2f2;fill-opacity:1;fill-rule:nonzero;stroke:none"
           id="path2106" /></g><g
         id="g2108"
         transform="matrix(0.6258723,0,0,0.6258723,1173.131,1020.4933)"
         style="fill:#ff6600"><path
           d="m 0,0 c -11.038,-5.009 -19.876,-12.057 -26.517,-21.144 -6.647,-9.093 -10.473,-19.359 -11.472,-30.796 h 150.448 c -0.752,11.437 -4.514,21.65 -11.284,30.642 C 94.404,-12.311 85.502,-5.262 74.47,-0.154 63.435,4.951 51.022,7.507 37.235,7.507 23.442,7.507 11.029,5.002 0,0 M 130.512,-63.892 H -38.365 c 0.499,-12.463 4.385,-23.547 11.66,-33.248 7.269,-9.706 17.112,-17.214 29.525,-22.523 12.412,-5.315 26.387,-7.967 41.937,-7.967 12.789,0 24.637,1.886 35.543,5.668 10.908,3.778 19.994,9.347 27.269,16.702 l 10.909,-10.113 c -8.53,-8.379 -19.248,-14.814 -32.16,-19.306 -12.918,-4.495 -26.892,-6.741 -41.937,-6.741 -19.559,0 -36.988,3.471 -52.279,10.419 -15.299,6.942 -27.269,16.547 -35.921,28.805 -8.651,12.258 -12.975,26.248 -12.975,41.981 0,15.524 4.071,29.466 12.223,41.828 8.146,12.358 19.37,22.011 33.663,28.958 14.292,6.943 30.335,10.419 48.143,10.419 17.802,0 33.786,-3.423 47.955,-10.265 14.164,-6.848 25.323,-16.394 33.475,-28.652 8.146,-12.257 12.223,-26.152 12.223,-41.675 z"
           style="fill:#f2f2f2;fill-opacity:1;fill-rule:nonzero;stroke:none"
           id="path2110" /></g><g
         id="g2112"
         transform="matrix(0.6258723,0,0,0.6258723,1300.1599,1020.4933)"
         style="fill:#ff6600"><path
           d="m 0,0 c -11.038,-5.009 -19.876,-12.057 -26.517,-21.144 -6.647,-9.093 -10.473,-19.359 -11.472,-30.796 h 150.448 c -0.752,11.437 -4.514,21.65 -11.284,30.642 C 94.404,-12.311 85.502,-5.262 74.47,-0.154 63.435,4.951 51.022,7.507 37.234,7.507 23.441,7.507 11.029,5.002 0,0 M 130.512,-63.892 H -38.365 c 0.499,-12.463 4.385,-23.547 11.66,-33.248 7.269,-9.706 17.112,-17.214 29.525,-22.523 12.412,-5.315 26.387,-7.967 41.937,-7.967 12.789,0 24.637,1.886 35.543,5.668 10.908,3.778 19.993,9.347 27.269,16.702 l 10.909,-10.113 c -8.53,-8.379 -19.248,-14.814 -32.16,-19.306 -12.918,-4.495 -26.892,-6.741 -41.937,-6.741 -19.559,0 -36.988,3.471 -52.279,10.419 -15.299,6.942 -27.269,16.547 -35.921,28.805 -8.651,12.258 -12.975,26.248 -12.975,41.981 0,15.524 4.071,29.466 12.223,41.828 8.146,12.358 19.37,22.011 33.663,28.958 14.292,6.943 30.335,10.419 48.142,10.419 17.803,0 33.787,-3.423 47.956,-10.265 14.164,-6.848 25.323,-16.394 33.475,-28.652 8.146,-12.257 12.223,-26.152 12.223,-41.675 z"
           style="fill:#f2f2f2;fill-opacity:1;fill-rule:nonzero;stroke:none"
           id="path2114" /></g><g
         id="g2156"
         style="fill-opacity:1;stroke:url(#linearGradient2834)"
         transform="matrix(0.6258723,0,0,0.6258723,306.44394,370.53952)"><g
           id="g2158"
           clip-path="url(#clipPath2162)"
           style="fill-opacity:1;stroke:url(#linearGradient926)"><g
             id="g2164"
             style="fill-opacity:1;stroke:url(#linearGradient924)"><g
               id="g2166"
               style="fill-opacity:1;stroke:url(#linearGradient922)"><path
                 d="m 1064.964,1155.666 c -7.895,-6.634 -14.219,-14.639 -18.553,-23.612 v 0 c -4.337,-8.966 -6.664,-18.896 -6.659,-29.208 v 0 h 19.47 c 0,7.405 1.64,14.354 4.72,20.738 v 0 c 4.623,9.56 12.548,17.901 23.44,23.95 v 0 c 10.883,6.038 24.728,9.735 40.909,9.736 v 0 c 21.57,0.018 40.925,-6.634 54.447,-16.836 v 0 c 6.769,-5.092 12.073,-11.033 15.642,-17.385 v 0 c 3.569,-6.367 5.446,-13.102 5.452,-20.203 v 0 c -0.01,-7.101 -1.883,-13.837 -5.452,-20.203 v 0 c -5.338,-9.525 -14.646,-18.141 -26.821,-24.32 v 0 c -12.157,-6.186 -27.092,-9.906 -43.268,-9.901 v 0 l -48.195,-0.084 -4.674,0.03 -170.61,-0.083 c -25.523,-0.018 -48.806,-7.728 -66.148,-20.748 v 0 c -8.661,-6.519 -15.846,-14.402 -20.909,-23.402 v 0 c -5.061,-8.985 -7.958,-19.127 -7.949,-29.745 v 0 c -0.009,-10.617 2.888,-20.758 7.949,-29.744 v 0 c 7.608,-13.502 19.926,-24.479 34.972,-32.135 v 0 c 15.063,-7.651 32.942,-12.009 52.09,-12.014 v 0 c 25.514,-0.004 47.521,7.795 63.326,21.074 v 0 c 7.895,6.633 14.22,14.639 18.553,23.612 v 0 c 4.337,8.966 6.664,18.896 6.659,29.207 v 0 h -19.47 c -0.004,-7.405 -1.64,-14.353 -4.72,-20.737 v 0 c -4.622,-9.56 -12.547,-17.901 -23.44,-23.951 v 0 c -10.882,-6.037 -24.728,-9.735 -40.908,-9.736 v 0 c -21.57,-0.017 -40.925,6.635 -54.447,16.837 v 0 c -6.77,5.091 -12.075,11.033 -15.643,17.384 v 0 c -3.569,6.367 -5.445,13.103 -5.452,20.203 v 0 c 0.007,7.101 1.883,13.838 5.452,20.204 v 0 c 5.338,9.524 14.646,18.14 26.821,24.32 v 0 c 12.158,6.186 27.093,9.906 43.269,9.901 v 0 l 170.503,0.083 4.699,-0.03 48.288,0.084 h -0.016 c 25.527,0.017 48.811,7.727 66.152,20.748 v 0 c 8.663,6.518 15.846,14.402 20.909,23.402 v 0 c 5.061,8.985 7.958,19.127 7.95,29.744 v 0 c 0.01,10.616 -2.889,20.758 -7.95,29.744 v 0 c -7.608,13.502 -19.925,24.48 -34.971,32.136 v 0 c -15.063,7.65 -32.942,12.01 -52.09,12.014 v 0 c -25.515,0 -47.521,-7.796 -63.327,-21.074"
                 style="fill:url(#linearGradient2227);fill-opacity:1;stroke:url(#linearGradient2836)"
                 id="path2174" /></g></g></g></g><g
         id="g2116"
         transform="matrix(0.6258723,0,0,0.6258723,306.44394,370.53953)"><g
           id="g2118"
           clip-path="url(#clipPath2122)"><g
             id="g2124"><g
               id="g2126"><path
                 d="m 975.615,991.266 -28.39,-25.768 12.737,-14.034 21.374,19.399 19.399,-21.373 14.035,12.74 -25.769,28.389 c -1.87,2.06 -4.44,3.107 -7.02,3.108 v 0 c -2.272,0 -4.551,-0.813 -6.366,-2.461"
                 style="fill:url(#linearGradient1024);fill-opacity:1;stroke:none"
                 id="path2134" /></g></g></g></g><g
         id="g2136"
         transform="matrix(0.6258723,0,0,0.6258723,306.44394,370.53953)"><g
           id="g2138"
           clip-path="url(#clipPath2142)"><g
             id="g2144"><g
               id="g2146"><path
                 d="m 1018.338,1114.318 25.769,-28.39 c 3.517,-3.874 9.511,-4.165 13.386,-0.648 v 0 l 28.389,25.771 -12.737,14.034 -21.373,-19.4 -19.398,21.372 z"
                 style="fill:url(#linearGradient2152);fill-opacity:1;stroke:none"
                 id="path2154" /></g></g></g></g></g></g></svg>
